# xmcd
#
# Track frame offsets:
#	150
#	12815
#	20912
#	32015
#	41352
#	50000
#	65890
#	79835
#	91590
#	106500
#	117080
#
# Disc length: 1728 seconds
#
# Revision: 1
# Processed by: cddbd v1.4PL0 Copyright (c) Steve Scherf et al.
# Submitted via: EasyCDDAExtractor 5.0.6
#
DISCID=8006be0b
DTITLE=Various Artist - Vamos Todos a Cantar
DYEAR=1998
DGENRE=Game
TTITLE0=Teresita Fernandez - Dame la Mano
TTITLE1=Miriam Ramos - Por que tenemos el corazon Feliz
TTITLE2=Ariel Diaz - Vicaria
TTITLE3=Anabel Lopez - Tintin, la Luvia
TTITLE4=Noel Nicola - El Grillo Acatarrado
TTITLE5=Jorge Garcia and Miriam Ramos - Rani
TTITLE6=Heidi Igualada and Jorge Garcia - Pitusa y Eusebio
TTITLE7=Mriam Ramos - Vinagrito
TTITLE8=Silvio Rodriguez - El Zunzuncito
TTITLE9=Miriam Ramos - Lo Feo
TTITLE10=Teresita Fernandez - Dame La Mano
EXTD=
EXTT0=
EXTT1=
EXTT2=
EXTT3=
EXTT4=
EXTT5=
EXTT6=
EXTT7=
EXTT8=
EXTT9=
EXTT10=
PLAYORDER=
